<svg xmlns="http://www.w3.org/2000/svg" viewBox="0 0 111 30" fill="#e50914">
  <path d="M105.06233,14.2806261 L110.999156,30 C109.249227,29.7497422 107.500234,29.4366498 105.718437,29.1511498 L102.374168,20.4833141 L99.9641,28.5765669 C98.2285438,28.3056498 96.5522806,27.9781029 94.8400595,27.6821498 L99.8346172,14.2806261 L94.560749,0 L99.2544539,0 L102.600235,8.15071556 L105.990128,0 L110.738893,0 L105.06233,14.2806261 Z M90.433,0 L95.1823,0 L95.1823,30 L90.433,30 L90.433,0 Z M83.07,0 L87.823,0 L87.823,30 L83.07,30 L83.07,0 Z M75.67,0 L80.407,0 L80.407,30 L75.67,30 L75.67,0 Z M68.233,0 L72.993,0 L72.993,30 L68.233,30 L68.233,0 Z M28.2139,0 L28.2139,30 L23.4799,30 L23.4799,0 L28.2139,0 Z M16.0737,0 L20.8077,0 L20.8077,30 L16.0737,30 L16.0737,0 Z M8.64573,0 L13.4047,0 L13.4047,30 L8.64573,30 L8.64573,0 Z M1.21573,0 L5.97473,0 L5.97473,30 L1.21573,30 L1.21573,0 Z M53.5153,0 L58.2743,0 L58.2743,10.3547 L65.0263,0 L70.5893,0 L62.1863,12.5693 L71.0173,30 L65.3653,30 L58.2743,16.2573 L58.2743,30 L53.5153,30 L53.5153,0 Z M44.5597,4.70133333 L39.7917,4.70133333 L39.7917,30 L44.5597,30 L44.5597,4.70133333 Z M44.5597,0 L39.7917,0 L39.7917,2.41133333 L44.5597,2.41133333 L44.5597,0 Z"/>
</svg>
